<svg id="Layer_1" width="64" height="64" data-name="Layer 1" xmlns="http://www.w3.org/2000/svg" viewBox="0 0 512 512">
  <defs>
    <style>
      .cls-1 {
        fill: #0074ff;
      }

      .cls-2 {
        fill: #fff;
      }
    </style>
  </defs>
  <rect class="cls-1" width="512" height="512" rx="128"/>
  <g>
    <path class="cls-2" d="M59.48,291.59h44.45q.66,20.31,12.76,30.28t28.7,10q39.13,0,39.14-53.23V180.15H86V138.56H229.3V284.28q0,41.25-22.88,65.21t-61,23.95q-36.49,0-61.2-21.46T59.48,293.59Z"/>
    <path class="cls-2" d="M371.26,138.56q32.83,0,52.24,17.47t19.41,44.08a61.55,61.55,0,0,1-7.8,30.77,55.36,55.36,0,0,1-21.39,21.46q19.23,8,29,23a60.1,60.1,0,0,1,9.78,33.6q0,27.28-19.9,44.91t-54.06,17.63H265.12V138.56Zm-63,40.26V237h61q13.94,0,22.55-8.48a28.06,28.06,0,0,0,8.63-20.8A27.75,27.75,0,0,0,392,187.14q-8.46-8.32-22.06-8.32Zm0,94.14v58.23h67.33q14.26,0,22.89-8.15t8.62-21.13q0-12.65-8.95-20.79T375.24,273Z"/>
  </g>
</svg>
